<?xml version="1.0" encoding="utf-8"?>
<!-- Generator: Adobe Illustrator 15.0.0, SVG Export Plug-In . SVG Version: 6.00 Build 0)  -->
<!DOCTYPE svg PUBLIC "-//W3C//DTD SVG 1.0//EN" "http://www.w3.org/TR/2001/REC-SVG-20010904/DTD/svg10.dtd">
<svg version="1.0" id="Layer_1" xmlns="http://www.w3.org/2000/svg" xmlns:xlink="http://www.w3.org/1999/xlink" x="0px" y="0px"
	 width="62.571px" height="361.713px" viewBox="0 0 62.571 361.713" enable-background="new 0 0 62.571 361.713"
	 xml:space="preserve">
<g id="Your_Icon_2_">
	<polygon fill="#F4F4F4" points="13.921,25.168 31.017,42.264 32.054,41.228 15.689,24.864 49.518,24.864 49.518,23.399 
		15.689,23.399 32.054,7.036 31.017,6 13.921,23.096 12.885,24.132 	"/>
</g>
<g id="Your_Icon_1_">
	<polygon fill="#F4F4F4" points="48.48,95.001 31.385,77.906 30.348,78.942 46.712,95.305 12.884,95.305 12.884,96.77 46.712,96.77 
		30.348,113.133 31.385,114.169 48.48,97.074 49.517,96.038 	"/>
</g>
<g>
	<polyline fill="none" stroke="#4E4E4E" stroke-miterlimit="10" points="46.205,142.678 52.932,149.021 46.587,155.365 	"/>
</g>
<g>
	<polyline fill="none" stroke="#4E4E4E" stroke-miterlimit="10" points="13.778,155.174 7.052,148.83 13.396,142.486 	"/>
</g>
<polygon fill="#FFFFFF" points="13.456,210.002 31.854,191.604 49.725,209.477 "/>
<g>
	<line fill="none" stroke="#DA0000" stroke-miterlimit="10" x1="13.5" y1="293" x2="53" y2="253.5"/>
	<line fill="none" stroke="#DA0000" stroke-miterlimit="10" x1="13.5" y1="253.5" x2="53" y2="293"/>
</g>
</svg>
