<?xml version="1.0" encoding="utf-8"?>
<!-- Generator: Adobe Illustrator 16.0.0, SVG Export Plug-In . SVG Version: 6.00 Build 0)  -->
<!DOCTYPE svg PUBLIC "-//W3C//DTD SVG 1.1//EN" "http://www.w3.org/Graphics/SVG/1.1/DTD/svg11.dtd">
<svg version="1.1" id="Layer_1" xmlns="http://www.w3.org/2000/svg" xmlns:xlink="http://www.w3.org/1999/xlink" x="0px" y="0px"
	 width="62.57px" height="854.544px" viewBox="0 0 62.57 854.544" enable-background="new 0 0 62.57 854.544" xml:space="preserve">
<g id="Your_Icon_2_">
	<polygon fill="#F4F4F4" points="13.921,25.168 31.017,42.264 32.054,41.228 15.689,24.864 49.518,24.864 49.518,23.399 
		15.689,23.399 32.054,7.036 31.017,6 13.921,23.096 12.885,24.132 	"/>
</g>
<g id="Your_Icon_1_">
	<polygon fill="#F4F4F4" points="48.48,95.001 31.385,77.906 30.348,78.942 46.712,95.305 12.884,95.305 12.884,96.77 46.712,96.77 
		30.348,113.133 31.385,114.169 48.48,97.074 49.517,96.038 	"/>
</g>
<g>
	<polyline fill="none" stroke="#4E4E4E" stroke-miterlimit="10" points="46.205,142.678 52.932,149.021 46.587,155.365 	"/>
</g>
<g>
	<polyline fill="none" stroke="#4E4E4E" stroke-miterlimit="10" points="13.778,155.174 7.052,148.83 13.396,142.486 	"/>
</g>
<g>
	<polyline fill="none" stroke="#4E4E4E" stroke-miterlimit="10" points="26.728,653.544 37.075,663.301 27.315,673.059 	"/>
</g>
<g>
	<polyline fill="none" stroke="#4E4E4E" stroke-miterlimit="10" points="36.327,756.646 25.981,746.888 35.74,737.131 	"/>
</g>
<polygon fill="#FFFFFF" points="13.456,210.002 31.854,191.604 49.725,209.478 "/>
<g>
	<line fill="none" stroke="#DA0000" stroke-miterlimit="10" x1="13.5" y1="293" x2="53" y2="253.5"/>
	<line fill="none" stroke="#DA0000" stroke-miterlimit="10" x1="13.5" y1="253.5" x2="53" y2="293"/>
</g>
<g>
	<line fill="none" stroke="#DA0000" stroke-miterlimit="10" x1="20.451" y1="598.921" x2="40.118" y2="579.255"/>
	<line fill="none" stroke="#DA0000" stroke-miterlimit="10" x1="20.451" y1="579.255" x2="40.118" y2="598.921"/>
</g>
<g>
	<line fill="none" stroke="#C1272D" stroke-miterlimit="10" x1="30.285" y1="330.356" x2="30.285" y2="347.357"/>
	<line fill="none" stroke="#C1272D" stroke-miterlimit="10" x1="21.785" y1="338.857" x2="38.785" y2="338.857"/>
</g>
<g>
	<polyline fill="none" stroke="#C1272D" stroke-miterlimit="10" points="18.515,526.177 30.285,519.177 42.054,526.177 	"/>
</g>
<g>
	<path fill="#C1272D" d="M42.735,395.833c-4.173-1.932-9.63-0.115-11.562,4.047c-1.931-4.162-7.39-5.979-11.562-4.047
		c-4.443,2.061-6.568,7.326-3.058,13.539c2.491,4.42,6.908,7.748,14.617,13.719c7.709-5.971,12.126-9.303,14.62-13.719
		C49.303,403.162,47.178,397.894,42.735,395.833z"/>
</g>
<g>
	<polyline fill="#FFFFFF" stroke="#C1272D" stroke-miterlimit="10" points="24.285,467.357 24.285,485.519 39.415,476.728 
		24.128,467.191 	"/>
</g>
</svg>
